<svg width="75" height="75" viewBox="0 0 75 75" fill="none" xmlns="http://www.w3.org/2000/svg">
<g clip-path="url(#clip0)">
<path d="M37.0562 0C16.5919 0 0 16.7906 0 37.5C0 58.2094 16.5919 75 37.0562 75C57.5205 75 74.1124 58.2094 74.1124 37.5C74.1124 16.786 57.5205 0 37.0562 0ZM46.6352 37.4952L40.5626 37.4998L40.558 59.9998H32.225V37.5H26.6666V29.7468L32.225 29.7422L32.2157 25.1766C32.2157 18.8485 33.911 15.0001 41.2713 15.0001H47.4041V22.7579H43.5687C40.7016 22.7579 40.5626 23.8406 40.5626 25.8609L40.5533 29.7422H47.4457L46.6352 37.4952Z" fill="#F9AFBD"/>
</g>
<defs>
<clipPath id="clip0">
<rect width="74.1124" height="75" fill="white"/>
</clipPath>
</defs>
</svg>
