<svg width="75" height="75" viewBox="0 0 75 75" fill="none" xmlns="http://www.w3.org/2000/svg">
<g clip-path="url(#clip0)">
<path d="M44.149 37.5C44.149 41.4642 40.9735 44.6777 37.0562 44.6777C33.1389 44.6777 29.9634 41.4642 29.9634 37.5C29.9634 33.5358 33.1389 30.3223 37.0562 30.3223C40.9735 30.3223 44.149 33.5358 44.149 37.5Z" fill="#F9AFBD"/>
<path d="M53.6438 24.8005C53.3028 23.8655 52.7589 23.0192 52.0521 22.3246C51.3656 21.6093 50.5299 21.0589 49.6054 20.7138C48.8557 20.4191 47.7293 20.0684 45.6548 19.9728C43.4106 19.8692 42.7377 19.8469 37.0562 19.8469C31.3742 19.8469 30.7013 19.8687 28.4577 19.9722C26.3831 20.0684 25.2562 20.4191 24.507 20.7138C23.5825 21.0589 22.7462 21.6093 22.0604 22.3246C21.3536 23.0192 20.8096 23.8649 20.4681 24.8005C20.1769 25.5592 19.8303 26.6996 19.7359 28.7991C19.6335 31.0696 19.6115 31.7505 19.6115 37.5006C19.6115 43.2501 19.6335 43.931 19.7359 46.2021C19.8303 48.3015 20.1769 49.4413 20.4681 50.2001C20.8096 51.1356 21.353 51.9814 22.0598 52.676C22.7462 53.3913 23.582 53.9417 24.5064 54.2868C25.2562 54.582 26.3831 54.9328 28.4577 55.0283C30.7013 55.1319 31.3736 55.1537 37.0557 55.1537C42.7383 55.1537 43.4111 55.1319 45.6542 55.0283C47.7288 54.9328 48.8557 54.582 49.6054 54.2868C51.4612 53.5624 52.9279 52.0781 53.6438 50.2001C53.935 49.4413 54.2816 48.3015 54.3766 46.2021C54.4789 43.931 54.5004 43.2501 54.5004 37.5006C54.5004 31.7505 54.4789 31.0696 54.3766 28.7991C54.2821 26.6996 53.9355 25.5592 53.6438 24.8005ZM37.0562 48.5573C31.0214 48.5573 26.1292 43.6071 26.1292 37.5C26.1292 31.3929 31.0214 26.4427 37.0562 26.4427C43.0905 26.4427 47.9826 31.3929 47.9826 37.5C47.9826 43.6071 43.0905 48.5573 37.0562 48.5573ZM48.4146 28.5896C47.0044 28.5896 45.8611 27.4326 45.8611 26.0056C45.8611 24.5785 47.0044 23.4215 48.4146 23.4215C49.8248 23.4215 50.9681 24.5785 50.9681 26.0056C50.9676 27.4326 49.8248 28.5896 48.4146 28.5896Z" fill="#F9AFBD"/>
<path d="M37.0562 0C16.5938 0 0 16.7925 0 37.5C0 58.2075 16.5938 75 37.0562 75C57.5187 75 74.1124 58.2075 74.1124 37.5C74.1124 16.7925 57.5187 0 37.0562 0ZM58.2062 46.3778C58.1033 48.67 57.7431 50.235 57.2173 51.6048C56.1119 54.4973 53.8524 56.7839 50.9941 57.9025C49.6411 58.4347 48.094 58.7986 45.8295 58.9033C43.5604 59.008 42.8355 59.0332 37.0568 59.0332C31.2775 59.0332 30.5532 59.008 28.2835 58.9033C26.019 58.7986 24.4719 58.4347 23.1189 57.9025C21.6985 57.3618 20.4127 56.5144 19.3497 55.4186C18.2674 54.3434 17.43 53.0416 16.8957 51.6048C16.3699 50.2356 16.0097 48.67 15.9068 46.3783C15.8022 44.0815 15.7778 43.3479 15.7778 37.5C15.7778 31.6521 15.8022 30.9185 15.9062 28.6222C16.0091 26.33 16.3687 24.765 16.8946 23.3952C17.4289 21.9584 18.2669 20.6566 19.3497 19.5814C20.4121 18.4856 21.6985 17.6382 23.1183 17.0975C24.4719 16.5653 26.0184 16.2014 28.2835 16.0967C30.5526 15.992 31.2775 15.9668 37.0562 15.9668C42.8349 15.9668 43.5598 15.992 45.8289 16.0973C48.094 16.2014 49.6405 16.5653 50.9941 17.0969C52.4139 17.6376 53.7003 18.4856 54.7633 19.5814C55.8456 20.6572 56.6835 21.9584 57.2173 23.3952C57.7437 24.765 58.1033 26.33 58.2068 28.6222C58.3103 30.9185 58.3346 31.6521 58.3346 37.5C58.3346 43.3479 58.3103 44.0815 58.2062 46.3778Z" fill="#F9AFBD"/>
</g>
<defs>
<clipPath id="clip0">
<rect width="74.1124" height="75" fill="white"/>
</clipPath>
</defs>
</svg>
